<?xml version="1.0" encoding="UTF-8" standalone="no"?>
<!-- Created with Inkscape (http://www.inkscape.org/) -->

<svg
   xmlns:dc="http://purl.org/dc/elements/1.1/"
   xmlns:cc="http://creativecommons.org/ns#"
   xmlns:rdf="http://www.w3.org/1999/02/22-rdf-syntax-ns#"
   xmlns:svg="http://www.w3.org/2000/svg"
   xmlns="http://www.w3.org/2000/svg"
   xmlns:sodipodi="http://sodipodi.sourceforge.net/DTD/sodipodi-0.dtd"
   xmlns:inkscape="http://www.inkscape.org/namespaces/inkscape"
   version="1.1"
   id="svg2"
   xml:space="preserve"
   width="1000"
   height="666.66669"
   viewBox="0 0 1000 666.66669"
   sodipodi:docname="man_couch_relax.svg"
   inkscape:version="0.92.4 5da689c313, 2019-01-14"><metadata
     id="metadata8"><rdf:RDF><cc:Work
         rdf:about=""><dc:format>image/svg+xml</dc:format><dc:type
           rdf:resource="http://purl.org/dc/dcmitype/StillImage" /><dc:title></dc:title></cc:Work></rdf:RDF></metadata><defs
     id="defs6" /><sodipodi:namedview
     pagecolor="#ffffff"
     bordercolor="#666666"
     borderopacity="1"
     objecttolerance="10"
     gridtolerance="10"
     guidetolerance="10"
     inkscape:pageopacity="0"
     inkscape:pageshadow="2"
     inkscape:window-width="1920"
     inkscape:window-height="1043"
     id="namedview4"
     showgrid="false"
     inkscape:zoom="0.97580736"
     inkscape:cx="505.7971"
     inkscape:cy="350.61433"
     inkscape:window-x="0"
     inkscape:window-y="0"
     inkscape:window-maximized="1"
     inkscape:current-layer="g10" /><g
     id="g10"
     inkscape:groupmode="layer"
     inkscape:label="ink_ext_XXXXXX"
     transform="matrix(1.3333333,0,0,-1.3333333,0,666.66667)"><g
       id="g12"
       transform="scale(0.1)"><path
         d="M 7500,0 H 0 V 5000 H 7500 V 0"
         style="fill:#e6f7fd;fill-opacity:1;fill-rule:nonzero;stroke:none"
         id="path14"
         inkscape:connector-curvature="0" /><path
         d="m 691.285,1202.29 5916.325,-32.5 c 0,0 -2846.33,-530.95 -5916.325,32.5"
         style="fill:#c9e6f1;fill-opacity:1;fill-rule:nonzero;stroke:none"
         id="path16"
         inkscape:connector-curvature="0" /><path
         d="m 5580.07,1499.73 h -69.48 v 2475.05 h 69.48 V 1499.73"
         style="fill:#5e6061;fill-opacity:1;fill-rule:nonzero;stroke:none"
         id="path18"
         inkscape:connector-curvature="0" /><path
         d="m 6000.31,3751.49 h -883.13 l 283.13,836.24 h 319.94 l 280.06,-836.24"
         style="fill:#f8a618;fill-opacity:1;fill-rule:nonzero;stroke:none"
         id="path20"
         inkscape:connector-curvature="0" /><path
         d="m 5451.91,4487.8 -147.16,-664.18 c 0,0 -26.75,491.06 147.16,664.18"
         style="fill:#e59314;fill-opacity:1;fill-rule:nonzero;stroke:none"
         id="path22"
         inkscape:connector-curvature="0" /><path
         d="m 5660.56,4482.93 185.7,-654.45 c 0,0 -1.97,491.79 -185.7,654.45"
         style="fill:#e59314;fill-opacity:1;fill-rule:nonzero;stroke:none"
         id="path24"
         inkscape:connector-curvature="0" /><path
         d="m 5544.76,4549.55 15.54,-680.11 c 0,0 121.49,476.55 -15.54,680.11"
         style="fill:#e59314;fill-opacity:1;fill-rule:nonzero;stroke:none"
         id="path26"
         inkscape:connector-curvature="0" /><path
         d="M 5810.74,1506.82 5769,1153.84 h -99.14 l -18.57,356.01 159.45,-3.03"
         style="fill:#8b401c;fill-opacity:1;fill-rule:nonzero;stroke:none"
         id="path28"
         inkscape:connector-curvature="0" /><path
         d="m 1498.82,1506.82 41.73,-352.98 h 99.14 l 18.57,356.01 -159.44,-3.03"
         style="fill:#8b401c;fill-opacity:1;fill-rule:nonzero;stroke:none"
         id="path30"
         inkscape:connector-curvature="0" /><path
         d="m 5791.37,2579.61 -506.89,14.05 19.95,-598.9 486.94,-153.49 v 738.34"
         style="fill:#20576c;fill-opacity:1;fill-rule:nonzero;stroke:none"
         id="path32"
         inkscape:connector-curvature="0" /><path
         d="m 1481.01,2585.31 506.89,14.05 -19.95,-598.9 -486.94,-153.49 v 738.34"
         style="fill:#20576c;fill-opacity:1;fill-rule:nonzero;stroke:none"
         id="path34"
         inkscape:connector-curvature="0" /><path
         d="m 5423.11,1989.87 -164.03,726.41 c -61.33,271.59 -302.62,464.47 -581.05,464.47 h -2084.3 c -281.48,0 -524.55,-197.04 -582.78,-472.43 l -151.93,-718.45 h 3564.09"
         style="fill:#337591;fill-opacity:1;fill-rule:nonzero;stroke:none"
         id="path36"
         inkscape:connector-curvature="0" /><path
         d="M 5366.57,2016.34 H 1914.36 c -163.33,0 -295.74,-119.67 -295.74,-267.29 v -357.26 h 1894.47 254.74 1894.47 v 357.26 c 0,147.62 -132.4,267.29 -295.73,267.29"
         style="fill:#4990a4;fill-opacity:1;fill-rule:nonzero;stroke:none"
         id="path38"
         inkscape:connector-curvature="0" /><path
         d="m 1758.88,1386.09 v 1017.08 c 0,100.59 -81.16,182.14 -181.28,182.14 h -74.1 c -100.11,0 -181.27,-81.55 -181.27,-182.14 V 1386.09 h 436.65"
         style="fill:#337591;fill-opacity:1;fill-rule:nonzero;stroke:none"
         id="path40"
         inkscape:connector-curvature="0" /><path
         d="m 5513.5,1386.09 v 1012.24 c 0,100.12 81.16,181.28 181.28,181.28 h 74.1 c 100.11,0 181.27,-81.16 181.27,-181.28 V 1386.09 H 5513.5"
         style="fill:#337591;fill-opacity:1;fill-rule:nonzero;stroke:none"
         id="path42"
         inkscape:connector-curvature="0" /><path
         d="m 1469.78,2327.21 c 0,-40.61 31.69,-73.53 70.77,-73.53 39.09,0 70.78,32.92 70.78,73.53 0,40.6 -31.69,73.52 -70.78,73.52 -39.08,0 -70.77,-32.92 -70.77,-73.52"
         style="fill:#20576c;fill-opacity:1;fill-rule:nonzero;stroke:none"
         id="path44"
         inkscape:connector-curvature="0" /><path
         d="m 1552.11,2170.01 v -591 c 0,0 -119.92,295.5 0,591"
         style="fill:#20576c;fill-opacity:1;fill-rule:nonzero;stroke:none"
         id="path46"
         inkscape:connector-curvature="0" /><path
         d="M 1758.88,1762.28 H 5513.5 V 1386.09 H 1758.88 v 376.19"
         style="fill:#337591;fill-opacity:1;fill-rule:nonzero;stroke:none"
         id="path48"
         inkscape:connector-curvature="0" /><path
         d="m 2911.35,3067.43 v -747.57 c 0,0 -151.69,373.78 0,747.57"
         style="fill:#20576c;fill-opacity:1;fill-rule:nonzero;stroke:none"
         id="path50"
         inkscape:connector-curvature="0" /><path
         d="m 5813.35,2354.98 c 0,-40.6 -31.69,-73.52 -70.78,-73.52 -39.09,0 -70.77,32.92 -70.77,73.52 0,40.61 31.68,73.53 70.77,73.53 39.09,0 70.78,-32.92 70.78,-73.53"
         style="fill:#20576c;fill-opacity:1;fill-rule:nonzero;stroke:none"
         id="path52"
         inkscape:connector-curvature="0" /><path
         d="m 4320.6,3043.74 v -747.58 c 0,0 151.69,373.79 0,747.58"
         style="fill:#20576c;fill-opacity:1;fill-rule:nonzero;stroke:none"
         id="path54"
         inkscape:connector-curvature="0" /><path
         d="m 5731.01,2197.79 v -591 c 0,0 119.92,295.5 0,591"
         style="fill:#20576c;fill-opacity:1;fill-rule:nonzero;stroke:none"
         id="path56"
         inkscape:connector-curvature="0" /><path
         d="m 1822.33,1606.79 h 3657.33 c 0,0 -1250.62,-160.41 -3657.33,0"
         style="fill:#20576c;fill-opacity:1;fill-rule:nonzero;stroke:none"
         id="path58"
         inkscape:connector-curvature="0" /><path
         d="m 5139.97,2579.72 c 0,0 -144.85,-377.88 -138.55,-440.86 6.29,-62.98 50.38,-139.64 79.77,-139.65 l 495.46,-3.71 c 0,0 57.15,11.1 86.3,105.57 29.14,94.47 123.61,453.46 123.61,463.95 0,10.5 12.6,70.98 -44.08,117.37 -56.68,46.38 -430.36,34.9 -501.74,12.79 -52.29,-16.2 -72.68,-40.39 -100.77,-115.46"
         style="fill:#f57e15;fill-opacity:1;fill-rule:nonzero;stroke:none"
         id="path60"
         inkscape:connector-curvature="0" /><path
         d="m 5685.58,2653.22 -181.53,-610.61 c 0,0 256.25,336.61 181.53,610.61"
         style="fill:#d2661c;fill-opacity:1;fill-rule:nonzero;stroke:none"
         id="path62"
         inkscape:connector-curvature="0" /><path
         d="m 5359,2468.27 199.75,176.46 c 0,0 -181.18,-69.66 -199.75,-176.46"
         style="fill:#d2661c;fill-opacity:1;fill-rule:nonzero;stroke:none"
         id="path64"
         inkscape:connector-curvature="0" /><path
         d="m 5232.07,2630.8 44.89,-153.24 c 0,0 -80.49,75.84 -44.89,153.24"
         style="fill:#d2661c;fill-opacity:1;fill-rule:nonzero;stroke:none"
         id="path66"
         inkscape:connector-curvature="0" /><path
         d="m 5304.82,2347.91 89.67,-224.81 c 0,0 12.49,172.56 -89.67,224.81"
         style="fill:#d2661c;fill-opacity:1;fill-rule:nonzero;stroke:none"
         id="path68"
         inkscape:connector-curvature="0" /><path
         d="m 5040.13,2164.89 191.94,173.36 c 0,0 -168.72,-51.95 -191.94,-173.36"
         style="fill:#d2661c;fill-opacity:1;fill-rule:nonzero;stroke:none"
         id="path70"
         inkscape:connector-curvature="0" /><path
         d="M 6745.18,2104.36 H 5909.8 c -35.09,0 -63.54,-18.78 -63.54,-41.93 0,-23.16 28.45,-41.93 63.54,-41.93 h 393.11 v -798.83 c -76.07,-7.99 -173.07,-23.04 -173.07,-23.04 v -47.01 h 477.77 v 47.01 c 0,0 -92.82,14.7 -166.57,22.77 v 799.1 h 304.14 c 35.09,0 63.53,18.77 63.53,41.93 0,23.15 -28.44,41.93 -63.53,41.93"
         style="fill:#ab7b51;fill-opacity:1;fill-rule:nonzero;stroke:none"
         id="path72"
         inkscape:connector-curvature="0" /><path
         d="m 6317.53,2019.44 h 113.35 c 0,0 -60.94,-52.4 -113.35,0"
         style="fill:#926444;fill-opacity:1;fill-rule:nonzero;stroke:none"
         id="path74"
         inkscape:connector-curvature="0" /><path
         d="m 6052.65,2330.85 v -58.81 c 0,-39.55 29.35,-72.17 67.45,-77.47 v -81.28 h -29.06 v -8.93 h 75.56 v 8.93 h -29.06 v 80.78 c 40.16,3.35 71.72,36.95 71.72,77.97 v 58.81 h -156.61"
         style="fill:#727894;fill-opacity:1;fill-rule:nonzero;stroke:none"
         id="path76"
         inkscape:connector-curvature="0" /><path
         d="m 6446.12,2433.84 h -29.46 v 117.01 h -57.28 v -117.01 h -21.74 c -33.99,0 -61.55,-27.56 -61.55,-61.55 v -267.93 h 231.58 v 267.93 c 0,33.99 -27.56,61.55 -61.55,61.55"
         style="fill:#8ab3e3;fill-opacity:1;fill-rule:nonzero;stroke:none"
         id="path78"
         inkscape:connector-curvature="0" /><path
         d="m 6507.67,2193.73 h -231.58 v 156.01 h 231.58 v -156.01"
         style="fill:#727894;fill-opacity:1;fill-rule:nonzero;stroke:none"
         id="path80"
         inkscape:connector-curvature="0" /><path
         d="m 6428.85,2536.63 h -84.57 v 42.98 h 84.57 v -42.98"
         style="fill:#ab7b51;fill-opacity:1;fill-rule:nonzero;stroke:none"
         id="path82"
         inkscape:connector-curvature="0" /><path
         d="m 2539.55,3177.74 c 0,0 -96.99,82.19 -62.13,201.91 34.85,119.72 197.01,212.16 390.98,174.27 193.98,-37.88 348.56,-243.17 363.71,-376.18 h -692.56"
         style="fill:#f8a618;fill-opacity:1;fill-rule:nonzero;stroke:none"
         id="path84"
         inkscape:connector-curvature="0" /><path
         d="m 3188.08,3446.63 c 0,0 46.42,46.42 121.41,46.42 l -29.76,-122.6 -91.65,76.18"
         style="fill:#a5681d;fill-opacity:1;fill-rule:nonzero;stroke:none"
         id="path86"
         inkscape:connector-curvature="0" /><path
         d="m 3080.96,3442.16 -52.67,79.45 c 0,0 -84.21,-67.84 -54.45,-151.16 29.75,-83.31 107.12,71.71 107.12,71.71"
         style="fill:#a5681d;fill-opacity:1;fill-rule:nonzero;stroke:none"
         id="path88"
         inkscape:connector-curvature="0" /><path
         d="m 2992.88,3416.87 c 0,0 -104.74,-77.36 -94.03,-160.68 10.72,-83.32 126.17,-98.43 289.23,-90.28 163.07,8.15 139.26,117.65 133.31,149.79 -5.95,32.14 -122.6,260.66 -328.51,101.17"
         style="fill:#f8a618;fill-opacity:1;fill-rule:nonzero;stroke:none"
         id="path90"
         inkscape:connector-curvature="0" /><path
         d="m 3007.42,3363.01 c 0,0 11.05,-35.62 57.91,-38.04 46.87,-2.41 46.15,34.39 46.15,34.39 0,0 -48.61,-51.17 -104.06,3.65"
         style="fill:#a5681d;fill-opacity:1;fill-rule:nonzero;stroke:none"
         id="path92"
         inkscape:connector-curvature="0" /><path
         d="m 3075.8,3300.21 c 0,0 24.36,20.23 67.28,13.62 42.92,-6.6 55.72,-31.78 58.61,-42.1 2.89,-10.31 -15.27,-50.35 -68.93,-42.09 -53.65,8.25 -84.61,48.29 -56.96,70.57"
         style="fill:#fbc84b;fill-opacity:1;fill-rule:nonzero;stroke:none"
         id="path94"
         inkscape:connector-curvature="0" /><path
         d="m 3162.16,3356.58 c 0,0 11.04,-35.63 57.9,-38.04 46.87,-2.42 46.15,34.38 46.15,34.38 0,0 -48.61,-51.17 -104.05,3.66"
         style="fill:#a5681d;fill-opacity:1;fill-rule:nonzero;stroke:none"
         id="path96"
         inkscape:connector-curvature="0" /><path
         d="m 3122.86,3305.99 c 0,0 23.52,2.07 33.43,-4.95 9.9,-7.02 -18.99,-26.83 -18.99,-26.83 0,0 -32.19,23.94 -14.44,31.78"
         style="fill:#a5681d;fill-opacity:1;fill-rule:nonzero;stroke:none"
         id="path98"
         inkscape:connector-curvature="0" /><path
         d="m 2953.55,3380.99 c 0,0 -139.21,-127.07 29.14,-203.25 0,0 -111.44,65.92 -29.14,203.25"
         style="fill:#dc8f16;fill-opacity:1;fill-rule:nonzero;stroke:none"
         id="path100"
         inkscape:connector-curvature="0" /><path
         d="m 2725.19,3206.89 c 109.62,15.55 139.43,31.82 153.82,-11.37 14.4,-43.19 -250.8,-104.51 -339.46,-17.78 -88.65,86.73 -67.26,179.39 -67.26,179.39 0,0 47.56,-179.39 252.9,-150.24"
         style="fill:#a5681d;fill-opacity:1;fill-rule:nonzero;stroke:none"
         id="path102"
         inkscape:connector-curvature="0" /><path
         d="m 3721.93,2419.74 c 0,0 -28.33,-315.29 56.67,-420.29 l -56.67,420.29"
         style="fill:#403a6e;fill-opacity:1;fill-rule:nonzero;stroke:none"
         id="path104"
         inkscape:connector-curvature="0" /><path
         d="m 2435.4,2035.35 c 0,0 -50.7,-63.7 -124.8,-147.9 0,0 0,-0.1 -0.1,-0.2 -6.3,-7.1 -12.8,-14.4 -19.4,-21.8 -25.3,-28.5 -64.7,-28.4 -107.8,-13.3 -54.9,19.3 -115.9,62.9 -161.6,102.8 -25.7,22.5 -46.6,43.8 -58.9,58.9 0,0.1 -0.1,0.1 -0.2,0.2 -22.9,24.1 -29,64.6 -29,64.6 -10.8,9.1 -15.8,45 25,23.3 16.8,-9 61.8,-22 108.7,-34.2 0,0 0,0 0.1,-0.1 66.9,-17.4 137.9,-33.2 137.9,-33.2 7.8,-1.8 15.6,-4.8 22.8,-8.2 l 63,102.4 144.3,-93.3"
         style="fill:#e14346;fill-opacity:1;fill-rule:nonzero;stroke:none"
         id="path106"
         inkscape:connector-curvature="0" /><path
         d="m 2021.7,1954.95 c -25.7,22.5 -46.6,43.8 -58.9,58.9 0,0.1 -0.1,0.1 -0.2,0.2 -22.9,24.1 -29,64.6 -29,64.6 -10.8,9.1 -15.8,45 25,23.3 16.8,-9 61.8,-22 108.7,-34.2 0,0 0,0 0.1,-0.1 1,-3.8 20.6,-80.5 -45.7,-112.7"
         style="fill:#b93238;fill-opacity:1;fill-rule:nonzero;stroke:none"
         id="path108"
         inkscape:connector-curvature="0" /><path
         d="m 2257.09,2073.38 c 0,0 -4.32,-16.43 19.43,-24.35 23.75,-7.91 34.58,-15.83 38.75,-25 4.16,-9.16 19.58,-22.08 35,-24.16 15.41,-2.09 33.75,-16.26 32.08,-28.96 l 12.1,14.46 c 0,0 -1.27,19.91 -25.43,28.66 -24.17,8.75 -42.92,18.34 -47.5,27.09 -4.59,8.75 -24.17,22.08 -38.75,22.5 -14.59,0.41 -17.76,22.63 -17.76,22.63 l -7.92,-12.87"
         style="fill:#b93238;fill-opacity:1;fill-rule:nonzero;stroke:none"
         id="path110"
         inkscape:connector-curvature="0" /><path
         d="m 2262.98,1921.95 c 0,0 16.25,0.63 25,18.75 8.75,18.13 6.87,25.63 6.87,25.63 0,0 27.5,-50.63 -31.87,-44.38"
         style="fill:#cd3e4d;fill-opacity:1;fill-rule:nonzero;stroke:none"
         id="path112"
         inkscape:connector-curvature="0" /><path
         d="m 2310.6,1887.45 c 0,0 0,-0.1 -0.1,-0.2 -6.3,-7.1 -12.8,-14.4 -19.4,-21.8 -25.3,-28.5 -64.7,-28.4 -107.8,-13.3 0,0 24.7,44.8 61.5,46.7 36.9,1.8 65.8,-11.4 65.8,-11.4"
         style="fill:#b93238;fill-opacity:1;fill-rule:nonzero;stroke:none"
         id="path114"
         inkscape:connector-curvature="0" /><path
         d="m 1962.35,2073.83 52.5,-8.13 c 0,0 -21.87,23.13 -52.5,8.13"
         style="fill:#97242b;fill-opacity:1;fill-rule:nonzero;stroke:none"
         id="path116"
         inkscape:connector-curvature="0" /><path
         d="m 4931.72,2263.16 c 0,0 -237.16,-406.31 -527.22,-352.91 -290.06,53.4 -341.14,856.74 -341.14,856.74 h 132.34 c 0,0 120.74,-466.68 225.22,-503.83 104.48,-37.15 239.15,108.92 239.15,108.92 0,0 204.31,74.5 271.65,-108.92"
         style="fill:#f2a976;fill-opacity:1;fill-rule:nonzero;stroke:none"
         id="path118"
         inkscape:connector-curvature="0" /><path
         d="m 4195.52,2764.9 c 0,0 16.49,34.26 27.26,90.1 10.76,55.84 -38.86,106.16 -45.1,120.43 -6.25,14.28 -31.22,7.14 -12.49,-54.41 18.73,-61.56 -26.76,-19.63 -57.09,24.08 -30.33,43.71 -3.57,92.78 -42.82,140.06 -39.25,47.28 -34.79,-39.25 -28.55,-68.69 0,0 -21.41,-11.6 -25.87,-39.25 -4.46,-27.66 0,-45.26 0,-45.26 0,0 -14.27,-15.41 -12.49,-39.49 1.78,-24.09 8.03,-28.55 8.03,-28.55 0,0 -8.92,-14.27 -2.68,-44.6 6.25,-30.33 69.59,-120.43 69.59,-120.43 l 122.21,66.01"
         style="fill:#f2a976;fill-opacity:1;fill-rule:nonzero;stroke:none"
         id="path120"
         inkscape:connector-curvature="0" /><path
         d="m 4931.76,2714.26 -93.19,-106.12 c 0,0 166.75,-101.8 260.43,-76.05 l 164.35,191.85 c 0,0 -262.93,-63.74 -331.59,-9.68"
         style="fill:#f2a976;fill-opacity:1;fill-rule:nonzero;stroke:none"
         id="path122"
         inkscape:connector-curvature="0" /><path
         d="m 5311.31,2825.05 c -21.46,29.89 -43.11,32.49 -55.84,30.57 28.04,100.67 18.41,234.58 -180.99,309.05 0,0 -71.35,-29.46 -94.68,-102.69 -23.33,-73.24 -116.45,-75.13 -116.45,-75.13 0,0 -29.68,-132.88 -67.74,-205.4 0,0 63.24,-90.26 211.13,-107.45 147.89,-17.19 186.23,50.28 186.23,50.28 87.33,-40.03 151.68,54.34 118.34,100.77"
         style="fill:#fbc597;fill-opacity:1;fill-rule:nonzero;stroke:none"
         id="path124"
         inkscape:connector-curvature="0" /><path
         d="m 5047.12,3221.33 c 0,0 -4.31,-87.82 92.96,-154.62 97.27,-66.8 98.36,-62.82 98.36,-62.82 0,0 -75.55,-66.64 -58.06,-127.89 0,0 -33.83,-45.53 -10.67,-67.26 0,0 53.36,47.28 94.23,47.29 40.86,0.01 80.21,-81.56 -0.59,-132.09 0,0 -53.14,-10.27 -71.11,2.8 0,0 -27.37,-14.8 -29.79,-37.02 -0.44,-3.98 14.67,-51.56 27.41,-51.56 0,0 109.08,36 168.33,80.57 59.24,44.57 153.05,149.86 104.73,239.23 0,0 -9.56,149.79 -194.56,243.13 -185,93.34 -217.74,61.21 -221.24,20.24"
         style="fill:#36353d;fill-opacity:1;fill-rule:nonzero;stroke:none"
         id="path126"
         inkscape:connector-curvature="0" /><path
         d="m 3813.2,2470.69 -1999.85,259.27 -61.92,-181.87 c 0,0 1369.98,-487.33 1736.67,-502.35 366.69,-15.03 325.1,424.95 325.1,424.95"
         style="fill:#403a6e;fill-opacity:1;fill-rule:nonzero;stroke:none"
         id="path128"
         inkscape:connector-curvature="0" /><path
         d="m 4838.57,2608.14 c 0,0 195.5,-75.32 277.11,-56.58 0,0 -1.53,-259.11 -175.74,-447.44 -174.22,-188.33 -384.34,-201.11 -741.88,-197.21 -346.38,3.78 -362.06,22.71 -362.06,22.71 l -46.51,541.07 592.83,50.32 c 0,0 297.69,82.32 456.25,87.13"
         style="fill:#f25556;fill-opacity:1;fill-rule:nonzero;stroke:none"
         id="path130"
         inkscape:connector-curvature="0" /><path
         d="m 4216.58,2833.28 c 0,0 95.7,-338.63 407.98,-343.45 312.28,-4.82 568.41,234.45 568.41,234.45"
         style="fill:none;stroke:#ffffff;stroke-width:10;stroke-linecap:round;stroke-linejoin:miter;stroke-miterlimit:10;stroke-dasharray:none;stroke-opacity:1"
         id="path132"
         inkscape:connector-curvature="0" /><path
         d="m 3799.03,2471.5 c 0,0 -338.55,315.64 -666.7,410.16 -328.14,94.51 -875.24,-745.31 -875.24,-745.31 l 201.23,-115.75 608.31,463.25 c 0,0 202.92,-500.93 769.37,-554.23 l -36.97,541.88"
         style="fill:#4a407a;fill-opacity:1;fill-rule:nonzero;stroke:none"
         id="path134"
         inkscape:connector-curvature="0" /><path
         d="m 4979.8,2300.43 c 0,0 -237.15,-406.32 -527.22,-352.92 -290.06,53.4 -341.14,856.75 -341.14,856.75 h 132.34 c 0,0 120.74,-466.68 225.22,-503.83 104.48,-37.15 239.15,108.92 239.15,108.92 0,0 204.31,74.5 271.65,-108.92"
         style="fill:#fbc597;fill-opacity:1;fill-rule:nonzero;stroke:none"
         id="path136"
         inkscape:connector-curvature="0" /><path
         d="m 4554.91,2359.24 262.06,-286.35 c 0,0 220.87,190.74 197.65,277.63 -23.21,86.89 -148.59,253.29 -459.71,8.72"
         style="fill:#e14346;fill-opacity:1;fill-rule:nonzero;stroke:none"
         id="path138"
         inkscape:connector-curvature="0" /><path
         d="m 4203.86,2889.06 v 0 c -10.31,-4.05 -21.95,1.02 -26.01,11.32 l -144.01,366.17 c -4.05,10.31 1.02,21.95 11.33,26 v 0 c 10.31,4.06 21.95,-1.01 26,-11.32 l 144.01,-366.16 c 4.06,-10.31 -1.01,-21.96 -11.32,-26.01"
         style="fill:#5e6061;fill-opacity:1;fill-rule:nonzero;stroke:none"
         id="path140"
         inkscape:connector-curvature="0" /><path
         d="m 4243.6,2802.17 c 0,0 16.49,34.25 27.26,90.1 10.77,55.84 -38.86,106.15 -45.1,120.43 -6.24,14.27 -31.22,7.13 -12.49,-54.42 18.73,-61.55 -26.76,-19.63 -57.09,24.09 -30.33,43.71 -3.57,92.77 -42.82,140.05 -39.25,47.28 -34.79,-39.25 -28.55,-68.69 0,0 -21.41,-11.59 -25.87,-39.25 -4.46,-27.65 0,-45.26 0,-45.26 0,0 -14.27,-15.4 -12.49,-39.49 1.79,-24.08 8.03,-28.54 8.03,-28.54 0,0 -8.92,-14.28 -2.68,-44.61 6.25,-30.33 69.59,-120.43 69.59,-120.43 l 122.21,66.02"
         style="fill:#fbc597;fill-opacity:1;fill-rule:nonzero;stroke:none"
         id="path142"
         inkscape:connector-curvature="0" /><path
         d="m 5227.83,2798.78 c 0,0 -20.13,-18.16 -13.03,-28.02 7.11,-9.87 -26.04,-37.09 -26.04,-37.09 0,0 5.42,-9.08 12.58,-11.45 0,0 43.06,29.99 47.8,56.43 0.83,4.62 0.91,8.39 0.47,11.46 -1.43,10.18 -13.56,14.83 -21.78,8.67 v 0"
         style="fill:#ffffff;fill-opacity:1;fill-rule:nonzero;stroke:none"
         id="path144"
         inkscape:connector-curvature="0" /><path
         d="m 5008.82,3046.89 c 0,0 21.03,7.54 49.12,-14.51 28.08,-22.06 23.44,-49.92 23.44,-49.92 0,0 -33.09,55.14 -72.56,64.43"
         style="fill:#5e6061;fill-opacity:1;fill-rule:nonzero;stroke:none"
         id="path146"
         inkscape:connector-curvature="0" /><path
         d="m 5009.53,2984.82 c -10.6,-14.49 -23.07,-23.39 -27.86,-19.89 -4.79,3.5 -0.08,18.08 10.52,32.57 10.6,14.49 23.07,23.4 27.86,19.9 4.78,-3.5 0.07,-18.09 -10.52,-32.58"
         style="fill:#5e6061;fill-opacity:1;fill-rule:nonzero;stroke:none"
         id="path148"
         inkscape:connector-curvature="0" /><path
         d="m 4852.1,2880.1 c 0,0 53.4,-37.15 91.32,-32.5 0,0 -75.07,-38.7 -91.32,32.5"
         style="fill:#db7160;fill-opacity:1;fill-rule:nonzero;stroke:none"
         id="path150"
         inkscape:connector-curvature="0" /><path
         d="m 3076.87,2635.15 v -123.32 c 0,0 66.56,62.95 0,123.32"
         style="fill:#403a6e;fill-opacity:1;fill-rule:nonzero;stroke:none"
         id="path152"
         inkscape:connector-curvature="0" /><path
         d="m 4478.85,2282.97 16.64,-117.6 c 0,0 45.75,59.12 -16.64,117.6"
         style="fill:#f2a976;fill-opacity:1;fill-rule:nonzero;stroke:none"
         id="path154"
         inkscape:connector-curvature="0" /><path
         d="m 1806.9,2709.45 -27.4,-169.7 c 0,0 -78.7,20.8 -185.6,54.8 0,0 -0.1,0 -0.2,0 -9.1,3 -18.4,6 -27.8,9 -36.3,11.8 -52,47.9 -55.5,93.4 -3.5,46.7 5.8,103.4 19,154 3.2,12.2 6.6,24 10.1,35.3 10.3,32.6 21.4,60.3 30.3,77.6 v 0.1 c 0.2,1.9 0.3,3.7 0.5,5.5 3.3,45.4 42.5,60.8 47.5,46.7 2.9,-8.4 4.6,-23.2 5.5,-33.9 5,-2.5 10.2,-5.8 12.8,-9.9 5.8,-9.1 20.2,-38.3 22.2,-43.3 1.2,-3 0.9,-17.6 0.5,-28.6 1,-3.6 1.8,-7.2 2.4,-10.6 0,0 0,0 -0.1,-0.1 2.1,-13 4.3,-26.1 6.5,-38.8 0.2,-1 0.4,-2.1 0.5,-3.1 9.2,-52.7 18,-97.8 18,-97.8 1.5,-7.8 1.9,-16.2 1.7,-24.1 l 119.1,-16.5"
         style="fill:#e14346;fill-opacity:1;fill-rule:nonzero;stroke:none"
         id="path156"
         inkscape:connector-curvature="0" /><path
         d="m 1742.61,2718.32 c 0,0 -16.78,-2.64 -14.48,-27.57 2.3,-24.93 -0.59,-38.03 -7.31,-45.53 -6.72,-7.5 -12.35,-26.81 -8.06,-41.76 4.29,-14.96 -1.31,-37.44 -13.62,-41.02 l 18.11,-5.27 c 0,0 17.73,9.17 16.02,34.82 -1.7,25.64 -0.46,46.66 5.7,54.38 6.17,7.71 10.51,31 5.03,44.52 -5.48,13.52 13.58,25.36 13.58,25.36 l -14.97,2.07"
         style="fill:#b93238;fill-opacity:1;fill-rule:nonzero;stroke:none"
         id="path158"
         inkscape:connector-curvature="0" /><path
         d="m 1606.33,2652.06 c 0,0 7.1,-14.63 27.22,-15.35 20.11,-0.73 26.22,4 26.22,4 0,0 -35.3,-45.53 -53.44,11.35"
         style="fill:#cd3e4d;fill-opacity:1;fill-rule:nonzero;stroke:none"
         id="path160"
         inkscape:connector-curvature="0" /><path
         d="m 1593.88,2594.58 c 0,0 -0.09,-0.04 -0.22,0.01 -9.03,2.92 -18.33,5.94 -27.76,9 -36.27,11.71 -52.01,47.83 -55.52,93.36 0,0 50.95,-4.6 67.49,-37.54 16.48,-33.06 16.01,-64.83 16.01,-64.83"
         style="fill:#b93238;fill-opacity:1;fill-rule:nonzero;stroke:none"
         id="path162"
         inkscape:connector-curvature="0" /><path
         d="m 1668.1,2847.85 c -69.35,40.77 -110.33,14.93 -138.7,3.1 3.2,12.2 6.6,24 10.1,35.3 10.3,32.6 21.4,60.3 30.3,77.6 v 0.1 c 0.2,1.9 0.3,3.7 0.5,5.5 3.3,45.4 42.5,60.8 47.5,46.7 2.9,-8.4 4.6,-23.2 5.5,-33.9 5,-2.5 10.2,-5.8 12.8,-9.9 5.8,-9.1 20.2,-38.3 22.2,-43.3 1.2,-3 0.9,-17.6 0.5,-28.6 1,-3.6 1.8,-7.2 2.4,-10.6 0,0 0,0 -0.1,-0.1 2.1,-13 4.3,-26.1 6.5,-38.8 0.2,-1 0.4,-2.1 0.5,-3.1"
         style="fill:#b93238;fill-opacity:1;fill-rule:nonzero;stroke:none"
         id="path164"
         inkscape:connector-curvature="0" /><path
         d="m 1622.35,2971.12 v -49.17 c 0,0 16.25,29.17 0,49.17"
         style="fill:#97242b;fill-opacity:1;fill-rule:nonzero;stroke:none"
         id="path166"
         inkscape:connector-curvature="0" /><path
         d="m 2411.1,2169.45 613.12,438.69 c 0,0 -396.03,-336.77 -594.99,-441.19 -15.02,-7.88 -14.07,0 -18.13,2.5"
         style="fill:#574f89;fill-opacity:1;fill-rule:nonzero;stroke:none"
         id="path168"
         inkscape:connector-curvature="0" /><path
         d="m 3046.55,2622.78 c 0,0 12.88,30.84 37.88,27.5 25,-3.33 34.17,-20.83 34.17,-20.83 l 636.67,-450 c 0,0 -547.5,421.4 -625.84,455.7 0,0 -55.77,63.47 -82.88,-12.37"
         style="fill:#574f89;fill-opacity:1;fill-rule:nonzero;stroke:none"
         id="path170"
         inkscape:connector-curvature="0" /><path
         d="m 2348.6,2231.95 195,-130 c 0,0 -157.5,41.67 -195,130"
         style="fill:#574f89;fill-opacity:1;fill-rule:nonzero;stroke:none"
         id="path172"
         inkscape:connector-curvature="0" /><path
         d="m 2282.77,2140.28 61.66,74.17 c 0,0 -28.33,-76.67 -61.66,-74.17"
         style="fill:#574f89;fill-opacity:1;fill-rule:nonzero;stroke:none"
         id="path174"
         inkscape:connector-curvature="0" /><path
         d="m 2362.77,2105.28 39.16,38.34 c 0,0 -4.16,-35.84 -39.16,-38.34"
         style="fill:#574f89;fill-opacity:1;fill-rule:nonzero;stroke:none"
         id="path176"
         inkscape:connector-curvature="0" /><path
         d="m 2435.42,2068.62 56.51,36.66 c 0,0 -5.52,-46.66 -56.51,-36.66"
         style="fill:#574f89;fill-opacity:1;fill-rule:nonzero;stroke:none"
         id="path178"
         inkscape:connector-curvature="0" /><path
         d="m 1910.27,2693.64 -36.67,-165.86 c 0,0 -14.73,148.77 36.67,165.86"
         style="fill:#333156;fill-opacity:1;fill-rule:nonzero;stroke:none"
         id="path180"
         inkscape:connector-curvature="0" /><path
         d="m 1825.48,2718.32 73.75,-15.74 c 0,0 -44.38,-14.76 -73.75,15.74"
         style="fill:#333156;fill-opacity:1;fill-rule:nonzero;stroke:none"
         id="path182"
         inkscape:connector-curvature="0" /><path
         d="m 1806.9,2637.76 59.2,-14.3 c 0,0 -37.15,-17.39 -59.2,14.3"
         style="fill:#333156;fill-opacity:1;fill-rule:nonzero;stroke:none"
         id="path184"
         inkscape:connector-curvature="0" /><path
         d="m 1799.85,2565.08 62.5,-15.63 c 0,0 -42.5,-9.37 -62.5,15.63"
         style="fill:#333156;fill-opacity:1;fill-rule:nonzero;stroke:none"
         id="path186"
         inkscape:connector-curvature="0" /></g></g></svg>